<svg xmlns="http://www.w3.org/2000/svg" version="1.1" xmlns:xlink="http://www.w3.org/1999/xlink" xmlns:svgjs="http://svgjs.dev/svgjs" width="128" height="128" viewBox="0 0 128 128"><g transform="matrix(0.8046875,0,0,0.8046875,12.760752631578946,12.760752631578946)"><svg viewBox="0 0 95 95" data-background-color="#ffffff" preserveAspectRatio="xMidYMid meet" height="128" width="128" xmlns="http://www.w3.org/2000/svg" xmlns:xlink="http://www.w3.org/1999/xlink"><g id="tight-bounds" transform="matrix(1,0,0,1,-0.24049999999999727,-0.24049999999999727)"><svg viewBox="0 0 95.481 95.481" height="95.481" width="95.481"><g><svg viewBox="0 0 95.481 95.481" height="95.481" width="95.481"><g><svg viewBox="0 0 95.481 95.481" height="95.481" width="95.481"><g id="textblocktransform"><svg viewBox="0 0 95.481 95.481" height="95.481" width="95.481" id="textblock"><g><svg viewBox="0 0 95.481 95.481" height="95.481" width="95.481"><g><svg viewBox="0 0 95.481 95.481" height="95.481" width="95.481"><g><svg xmlns="http://www.w3.org/2000/svg" xmlns:xlink="http://www.w3.org/1999/xlink" version="1.1" x="0" y="0" viewBox="5 5 90 90" enable-background="new 0 0 100 100" xml:space="preserve" height="95.481" width="95.481" class="icon-icon-0" data-fill-palette-color="accent" id="icon-0"><polygon points="51.534,48.466 51.534,5 48.466,5 48.466,48.466 5,48.466 5,51.534 48.466,51.534 48.466,95 51.534,95   51.534,51.534 95,51.534 95,48.466 " fill="#0d3cde" data-fill-palette-color="accent"></polygon><polygon points="23.921,38.239 29.034,38.239 29.034,28.523 38.75,28.523 38.75,23.409 29.034,23.409 29.034,13.693 23.921,13.693   23.921,23.409 14.205,23.409 14.205,28.523 23.921,28.523 " fill="#0d3cde" data-fill-palette-color="accent"></polygon><polygon points="33.348,62 26.478,68.87 19.606,62 15.991,65.615 22.861,72.486 15.991,79.356 19.606,82.972 26.478,76.102   33.347,82.972 36.962,79.356 30.093,72.486 36.963,65.615 " fill="#0d3cde" data-fill-palette-color="accent"></polygon><rect x="61" y="23.409" width="24.546" height="5.114" fill="#0d3cde" data-fill-palette-color="accent"></rect><rect x="61" y="74.531" width="24.546" height="5.114" fill="#0d3cde" data-fill-palette-color="accent"></rect><rect x="61" y="65.327" width="24.546" height="5.114" fill="#0d3cde" data-fill-palette-color="accent"></rect></svg></g></svg></g></svg></g></svg></g></svg></g></svg></g><defs></defs></svg><rect width="95.481" height="95.481" fill="none" stroke="none" visibility="hidden"></rect></g></svg></g></svg>