<svg xmlns="http://www.w3.org/2000/svg" version="1.1" xmlns:xlink="http://www.w3.org/1999/xlink" xmlns:svgjs="http://svgjs.dev/svgjs" width="2000" height="616" viewBox="0 0 2000 616"><g transform="matrix(1,0,0,1,-1.2121212121212466,0.704244051311548)"><svg viewBox="0 0 396 122" data-background-color="#ffffff" preserveAspectRatio="xMidYMid meet" height="616" width="2000" xmlns="http://www.w3.org/2000/svg" xmlns:xlink="http://www.w3.org/1999/xlink"><g id="tight-bounds" transform="matrix(1,0,0,1,0.2400000000000091,-0.1394769062662533)"><svg viewBox="0 0 395.52 122.27895381253252" height="122.27895381253252" width="395.52"><g><svg viewBox="0 0 610.4608207881731 188.7300528658923" height="122.27895381253252" width="395.52"><g transform="matrix(1,0,0,1,214.9408207881732,38.85161566209082)"><svg viewBox="0 0 395.52 111.02682154171066" height="111.02682154171066" width="395.52"><g id="textblocktransform"><svg viewBox="0 0 395.52 111.02682154171066" height="111.02682154171066" width="395.52" id="textblock"><g><svg viewBox="0 0 395.52 111.02682154171066" height="111.02682154171066" width="395.52"><g transform="matrix(1,0,0,1,0,0)"><svg width="395.52" viewBox="1.71 -31.49 138.70999999999998 38.94" height="111.02682154171066" data-palette-color="#0d3cde"><path d="M26.9 7.45Q25.63 7.45 24.34 6.9 23.05 6.35 21.88 5.54 20.7 4.74 18.99 3.39L18.99 3.39Q17.72 2.42 16.86 1.79 15.99 1.17 15.14 0.66L15.14 0.66Q14.6 0.73 14.04 0.73L14.04 0.73Q10.52 0.73 7.7-1.38 4.88-3.49 3.3-7.08 1.71-10.67 1.71-14.94L1.71-14.94Q1.71-19.31 3.55-23.13 5.4-26.95 8.54-29.22 11.69-31.49 15.45-31.49L15.45-31.49Q19.31-31.49 22.11-29.28 24.9-27.08 26.34-23.49 27.78-19.9 27.78-15.8L27.78-15.8Q27.78-12.4 26.6-9.29 25.42-6.18 23.35-3.82 21.29-1.46 18.68-0.29L18.68-0.29Q19.8 0.29 21.58 1.44L21.58 1.44Q23.49 2.66 24.72 3.28 25.95 3.91 27.05 3.91L27.05 3.91Q27.66 3.91 28.42 3.5 29.17 3.1 30.64 2L30.64 2 31.3 2.86Q30.18 4.91 28.93 6.18 27.69 7.45 26.9 7.45L26.9 7.45ZM14.75-28.69Q11.89-28.69 9.8-27.09 7.71-25.49 6.6-22.55 5.49-19.6 5.49-15.65L5.49-15.65Q5.49-12.06 6.76-8.96 8.03-5.86 10.16-4.03 12.28-2.2 14.75-2.2L14.75-2.2Q17.48-2.2 19.57-3.71 21.66-5.22 22.83-8.19 24-11.16 24-15.36L24-15.36Q24-18.75 22.83-21.83 21.66-24.9 19.53-26.79 17.41-28.69 14.75-28.69L14.75-28.69ZM52.29 0L31.22 0 31.22-1.05Q32.83-1.37 33.8-1.78 34.76-2.2 34.76-2.54L34.76-2.54 34.76-28.2Q34.76-28.52 33.82-28.96 32.88-29.39 31.22-29.71L31.22-29.71 31.22-30.76 50.9-30.76 51.71-30.15Q51.63-28.96 51.33-27.31 51.02-25.66 50.71-24.66L50.71-24.66 49.61-24.66Q49.51-26.83 49.02-27.7 48.53-28.56 47.6-28.56L47.6-28.56 38.67-28.56 38.67-17.94 48.56-17.94 49.19-17.26Q48.75-16.53 48.11-15.72 47.46-14.92 46.95-14.55L46.95-14.55Q46.16-15.28 45.14-15.59 44.11-15.89 42.11-15.89L42.11-15.89 38.67-15.89 38.67-3.76Q38.67-3.22 39.05-2.89 39.43-2.56 40.5-2.38 41.57-2.2 43.65-2.2L43.65-2.2 46.8-2.2Q48.44-2.2 49.33-2.47 50.22-2.73 50.89-3.61 51.56-4.49 52.24-6.4L52.24-6.4 53.29-5.96Q53.12-4.08 52.84-2.5 52.56-0.93 52.29 0L52.29 0ZM73.8 0L73.8-1.05Q75.39-1.22 76.07-1.48 76.75-1.73 76.75-2.2L76.75-2.2Q76.75-2.51 76.36-3.1L76.36-3.1 69.55-13.06 63.4-3.1Q63.08-2.61 63.08-2.25L63.08-2.25Q63.08-1.71 63.91-1.44 64.74-1.17 66.55-1.05L66.55-1.05 66.55 0 55.56 0 55.56-1.05Q57.22-1.17 58.32-1.65 59.42-2.12 60-3.1L60-3.1 67.74-15.72 59.61-27.66Q59.1-28.39 58.65-28.77 58.2-29.15 57.58-29.35 56.95-29.54 55.81-29.71L55.81-29.71 55.81-30.76 66.82-30.76 66.82-29.71Q65.2-29.57 64.51-29.32 63.81-29.08 63.81-28.59L63.81-28.59Q63.81-28.22 64.2-27.66L64.2-27.66 70.23-18.8 75.75-27.66Q76.04-28.15 76.04-28.49L76.04-28.49Q76.04-29.05 75.23-29.31 74.41-29.57 72.55-29.71L72.55-29.71 72.55-30.76 83.61-30.76 83.61-29.71Q81.73-29.49 80.74-29.08 79.76-28.66 79.15-27.66L79.15-27.66 72.04-16.16 80.95-3.1Q81.64-2.1 82.48-1.67 83.32-1.25 84.81-1.05L84.81-1.05 84.81 0 73.8 0ZM86.78 0L86.78-1.05Q88.4-1.37 89.36-1.78 90.32-2.2 90.32-2.54L90.32-2.54 90.32-29.05Q88.96-28.88 86.78-28.52L86.78-28.52 86.56-30.03Q89.01-30.69 92.07-31.09 95.13-31.49 98.01-31.49L98.01-31.49Q101.53-31.49 104.13-30.49 106.73-29.49 108.13-27.55 109.54-25.61 109.54-22.85L109.54-22.85Q109.54-19.7 107.93-17.48 106.32-15.26 103.98-14.16 101.65-13.06 99.55-13.06L99.55-13.06Q97.26-13.06 95.62-13.79L95.62-13.79 95.06-15.63Q96.67-14.89 98.82-14.89L98.82-14.89Q100.41-14.89 102.02-15.71 103.63-16.53 104.69-18.1 105.75-19.68 105.75-21.85L105.75-21.85Q105.75-24.41 104.56-26.12 103.36-27.83 101.3-28.64 99.24-29.44 96.62-29.44L96.62-29.44Q95.79-29.44 94.23-29.39L94.23-29.39 94.23-2.54Q94.23-1.76 98.5-1.05L98.5-1.05 98.5 0 86.78 0ZM120.5 0L120.5-1.05Q122.55-1.46 123.53-1.94 124.5-2.42 124.5-2.81L124.5-2.81 124.5-13.11Q122.82-16.8 120.27-21.14 117.71-25.49 115.81-28.1L115.81-28.1Q115.44-28.54 115.03-28.82 114.61-29.1 113.84-29.27 113.08-29.44 111.81-29.44L111.81-29.44 111.71-30.49Q115.35-31.01 117.06-31.01L117.06-31.01Q118.2-31.01 118.96-30.05L118.96-30.05Q120.74-27.76 122.95-24 125.16-20.24 126.92-16.6L126.92-16.6 133.46-28.1Q133.61-28.37 133.61-28.56L133.61-28.56Q133.61-28.98 132.94-29.26 132.27-29.54 130.75-29.71L130.75-29.71 130.75-30.76 140.42-30.76 140.42-29.71Q138.66-29.37 137.81-29.03 136.95-28.69 136.61-28.1L136.61-28.1 128.41-13.21 128.41-2.81Q128.41-2.44 129.4-1.95 130.39-1.46 132.46-1.05L132.46-1.05 132.46 0 120.5 0Z" opacity="1" transform="matrix(1,0,0,1,0,0)" fill="#0d3cde" class="wordmark-text-0" data-fill-palette-color="primary" id="text-0"></path></svg></g></svg></g></svg></g></svg></g><g><svg viewBox="0 0 188.7300528658923 188.7300528658923" height="188.7300528658923" width="188.7300528658923"><g><svg xmlns="http://www.w3.org/2000/svg" xmlns:xlink="http://www.w3.org/1999/xlink" version="1.1" x="0" y="0" viewBox="5 5 90 90" enable-background="new 0 0 100 100" xml:space="preserve" height="188.7300528658923" width="188.7300528658923" class="icon-icon-0" data-fill-palette-color="accent" id="icon-0"><polygon points="51.534,48.466 51.534,5 48.466,5 48.466,48.466 5,48.466 5,51.534 48.466,51.534 48.466,95 51.534,95   51.534,51.534 95,51.534 95,48.466 " fill="#0d3cde" data-fill-palette-color="accent"></polygon><polygon points="23.921,38.239 29.034,38.239 29.034,28.523 38.75,28.523 38.75,23.409 29.034,23.409 29.034,13.693 23.921,13.693   23.921,23.409 14.205,23.409 14.205,28.523 23.921,28.523 " fill="#0d3cde" data-fill-palette-color="accent"></polygon><polygon points="33.348,62 26.478,68.87 19.606,62 15.991,65.615 22.861,72.486 15.991,79.356 19.606,82.972 26.478,76.102   33.347,82.972 36.962,79.356 30.093,72.486 36.963,65.615 " fill="#0d3cde" data-fill-palette-color="accent"></polygon><rect x="61" y="23.409" width="24.546" height="5.114" fill="#0d3cde" data-fill-palette-color="accent"></rect><rect x="61" y="74.531" width="24.546" height="5.114" fill="#0d3cde" data-fill-palette-color="accent"></rect><rect x="61" y="65.327" width="24.546" height="5.114" fill="#0d3cde" data-fill-palette-color="accent"></rect></svg></g></svg></g></svg></g><defs></defs></svg><rect width="395.52" height="122.27895381253252" fill="none" stroke="none" visibility="hidden"></rect></g></svg></g></svg>